<svg enable-background="new 0 0 44 44" viewBox="0 0 44 44" xmlns="http://www.w3.org/2000/svg">
    <path fill="currentColor"
        d="m42.8 3.3-30.1 30.1-2.1-2.1 5.2-5.2 2.9-2.9 1.2-1.2 2.1-2.1 1.2-1.2 5.7-5.7 11.8-11.8c.8-.9 1.6-1.2 2.2-1.2 1.3 0 1.7 1.6-.1 3.3zm-24.1 17.5 2.1-2.1-4.1-4.1-13.4-13.4c-.8-.9-1.6-1.2-2.2-1.2-1.2 0-1.6 1.6.2 3.3zm14.7 10.5-4.2-4.2-3.9-3.9-2.1 2.1 8.1 8.1zm-25 0-1.2 1.2 4.3 4.3 1.2-1.2zm27.2 0-4.3 4.3 1.2 1.2 4.3-4.3zm-28.8 2.9-.9.9 3.1 3.1.9-.9zm30.4 0-3.1 3.1.9.9 3.1-3.1zm-30.4 4.2-3.7 3.7-1.2-1.2 3.7-3.7-.9-.9-4.7 4.6 3.1 3.1 1-1 1 1 1.7-1.7-1-1 2-2zm37.2.5-1.7-1.7-1 1-2-2-.9.9 3.7 3.7-1.2 1.2-3.7-3.7-.9.9 4.7 4.7 3.1-3.1-1-1z" />
</svg>