<svg enable-background="new 0 0 155.8 67.3" viewBox="0 0 155.8 67.3" xmlns="http://www.w3.org/2000/svg"><path d="m66.5 53.8h-4.7c-.2 0-.3-.2-.3-.4 0-.1 2.5-8.2 2.5-8.2.1-.3.1-.3.1-.3s0 0 .1.3c0 0 2.5 8.1 2.5 8.2.1.2 0 .4-.2.4m6.4-18.6c0-.2-.2-.3-.4-.3h-17.4c-.2 0-.3.1-.4.3 0 0-9.6 31.8-9.6 31.9 0 .2.1.3.3.3h11.5c.1 0 .2-.1.2-.2l1.3-4.3c0-.1.1-.2.3-.2h10.6c.1 0 .2.1.3.2l1.4 4.3c0 .1.1.2.2.2h11.3c.2 0 .3-.1.3-.3 0-.1-9.9-31.9-9.9-31.9m32.9 12.9h-7.1c-.1 0-.2-.1-.2-.3v-3.6c0-.1.1-.2.2-.3h6.5c1.2-.1 2.2.8 2.3 1.9v.2c0 1.2-.8 2-1.7 2.1m33.9-2.7h16v-10.5h-20.6c-2.2.1-4.4.9-6.2 2.1-2.3 1.8-3.7 4.5-3.8 7.4.1 2.3.8 4.6 2.2 6.4 1.1 1.4 4 4.3 4 4.3.1.1.1.2.1.3 0 .2-.2.4-.4.4h-15.9c-1.9 0-2.1-.8-2.1-.9 0-.2.2-.3.2-.3.8-.4 1.5-.9 2.2-1.5 2.3-1.8 3.6-4.6 3.5-7.6.1-3-1.2-5.9-3.5-7.8-2.1-1.7-4.6-2.7-7.3-2.9h-22.6v32.3c0 .1.1.2.2.2h12.6v-9.1c0-.2.2 0 .2 0l6.6 6.6c2.3 2.4 6.2 2.4 6.2 2.4h24.9c5.6-.1 10.1-4.7 10-10.3 0-2.5-1-4.8-2.6-6.7-.7-.8-3.5-3.8-4-4.4-.1-.1-.1-.1-.1-.2 0 0 .1-.2.2-.2m-100.4 21.9c.1 0 .2-.1.2-.2 0 0 9.8-32.1 9.8-32.1 0-.1 0-.2-.1-.2h-12c-.1 0-.1 0-.1.1 0 0-2.5 8.3-2.5 8.3 0 .1-.1.1-.1.1-.1 0-.1-.1-.1-.1l-2.7-8.2c0-.1-.1-.1-.1-.1h-13.3s-.1 0-.1.1l-2.3 8.4c0 .1-.1.1-.1.1-.1 0-.1 0-.1-.1l-2.6-8.4c0-.1 0-.1-.1-.1h-12.8c-.1 0-.2.1-.2.2v.1l9.9 32.1c0 .1.1.2.2.2h10.7c.1 0 .1-.1.1-.2 0 0 3.7-11.9 3.7-11.9 0-.1.1-.1.1-.1.1 0 .1.1.1.1l3.6 12c0 .1.1.1.1.1zm-9.2-67.3c-2.2.1-4.4.9-6.2 2.1-2.3 1.8-3.7 4.5-3.8 7.4.1 2.3.8 4.6 2.2 6.4 1.1 1.4 4 4.3 4 4.3.1.1.1.2.1.3 0 .2-.2.4-.4.4h-26v11.5h31.2c5.4.1 9.9-4.2 10-9.6 0-.1 0-.3 0-.4.1-2.6-.9-5.1-2.6-7-.7-.8-3.5-3.8-4-4.4-.1-.1-.1-.1-.1-.2s.1-.3.2-.3h15v21.9h11.5v-21.8h14v-10.6zm100.6 13.3h-7.1c-.1 0-.2-.1-.2-.3v-3.6c0-.1.1-.2.2-.3h6.5c1.2-.1 2.2.8 2.3 1.9v.2c0 1.1-.7 1.9-1.7 2.1m9.4 7.7c-1.9 0-2.1-.8-2.1-.9 0-.2.2-.3.2-.3.8-.4 1.5-.9 2.2-1.5 2.3-1.8 3.6-4.6 3.5-7.6.1-3-1.2-5.9-3.5-7.8-2.1-1.7-4.6-2.7-7.3-2.9h-22.7v32.3c0 .1.1.2.2.2h12.6v-9c0-.2.2 0 .2 0l6.6 6.6c2.3 2.4 6.2 2.4 6.2 2.4h19.4v-11.5zm-48-2.1h-4.7c-.2 0-.3-.2-.3-.4 0-.1 2.5-8.2 2.5-8.2.1-.3.1-.3.1-.3s0 0 .1.3c0 0 2.5 8.1 2.5 8.2.1.2 0 .4-.2.4m6.4-18.6c0-.2-.2-.3-.4-.3h-17.4c-.2 0-.3.1-.4.3 0 0-9.6 31.8-9.6 31.9 0 .2.1.3.3.3h11.5c.1 0 .2-.1.2-.2l1.3-4.3c0-.1.1-.2.3-.2h10.6c.1 0 .2.1.3.2l1.4 4.3c0 .1.1.2.2.2h11.3c.2 0 .3-.1.3-.3 0-.1-9.9-31.9-9.9-31.9" fill="#fffffd"/></svg>