<svg enable-background="new 0 0 128 128" viewBox="0 0 128 128" xmlns="http://www.w3.org/2000/svg">
    <path
        d="m114.4 11.7c.1.4.3.8-.1 1.1-.3.3-.6.1-.9-.2-.3-.2-.3-.7 0-.9 0 0 .1-.1.1-.1.3-.3.6-.1.9.1zm-6 14.2c-.5-.2-1.1.1-1.3.6v.2c-.2.6-.1 1.1.5 1.3.7.2 1.1-.3 1.5-.8-.1-.5-.1-1.1-.7-1.3zm-13.6 8.8c.4-.1.7-.5.6-1v-.1c-.2-.5-.5-.8-.9-.6-.5.2-.6.7-.6 1.2.1.2.4.6.9.5zm-6.5-18.1c.4.1.9-.2 1-.6v-.1c.1-.5-.1-.9-.6-1-.6-.1-.8.4-1.1.8.2.4.2.9.7.9zm-3.9-7.5c.3.2.7.1.9-.2 0 0 0-.1.1-.1.2-.3.2-.7-.2-.9s-.7.1-1 .3c-.1.3-.2.7.2.9zm-14.5 14.6c0-.3-.2-.6-.5-.6h-.1c-.3 0-.6.1-.6.5s.3.5.6.7c.2-.2.5-.3.6-.6zm-27.9 30.4c-.4.4-.3 1.1.1 1.5 0 0 .1.1.1.1.5.4 1 .5 1.4 0 .4-.6.1-1.1-.2-1.7-.5-.2-1-.4-1.4.1zm-3.7 11.9c.5 0 .8-.4.8-.9v-.1c-.1-.5-.3-.9-.8-.9-.6.1-.8.6-.9 1.1.2.4.4.9.9.8zm23.1 3.9c-.1-.3-.4-.5-.7-.4h-.1c-.3.1-.5.4-.4.7.1.4.5.4.8.4.2-.2.5-.4.4-.7zm4.9 3.3c.4-.2.6-.6.4-1 0 0 0-.1-.1-.1-.2-.4-.5-.6-.9-.4s-.4.7-.4 1.1c.3.3.6.6 1 .4zm8.1 7.4c.1-.5-.2-1.1-.7-1.2-.1 0-.1 0-.2 0-.6-.1-1.1.1-1.2.7-.1.7.4 1 1 1.4.4-.2 1-.3 1.1-.9zm12.8 4.7c.5.1.9-.2 1-.7v-.1c.1-.5-.1-1-.6-1-.6-.1-.9.4-1.1.9.1.3.2.8.7.9zm4.5-3.9c-.3.3-.4.8-.1 1.1 0 0 .1.1.1.1.4.3.8.5 1.1.1.4-.4.2-.9 0-1.3-.4-.2-.8-.4-1.1 0zm6.8-13.4c.2.2.6.2.9 0 0 0 0-.1.1-.1.2-.3.3-.6 0-.9s-.7-.1-1 .1c-.2.3-.3.7 0 .9zm26.2-20.9c.3 0 .6-.2.7-.5v-.1c0-.4-.1-.7-.5-.7s-.6.3-.8.7c.2.3.3.6.6.6zm-13.1-3c-.1-.4-.4-.7-.9-.6h-.1c-.4.1-.8.4-.7.8.1.5.6.6 1.1.7.3-.2.7-.4.6-.9zm-13.6-.9c-.1-.4-.5-.7-.9-.6h-.1c-.4.2-.7.5-.6.9.2.5.7.5 1.1.6.3-.2.7-.4.5-.9zm-9.8 82.7c.3-.1.5-.4.4-.7v-.1c-.1-.3-.4-.5-.7-.4-.4.1-.4.5-.4.9.2.1.4.4.7.3zm2.1-18.4c.5 0 .9-.5.9-1 0-.1 0-.1 0-.2-.1-.5-.4-1-1-.9s-.8.7-.9 1.2c.2.5.5 1 1 .9zm16.5 11.7c-.4-.1-.9.2-1 .6v.1c-.1.5.1.9.6 1 .6.1.8-.4 1.1-.8-.1-.4-.2-.9-.7-.9zm8.8-19.9c.1-.3 0-.7-.3-.8h-.1c-.3-.1-.7-.1-.8.3s.2.7.4.9c.3-.1.7-.1.8-.4zm-67-11.1c.1.4.5.7.9.6h.1c.4-.1.7-.4.6-.9-.2-.5-.6-.5-1.1-.6-.3.2-.7.5-.5.9zm-.9 29.3c-.3.1-.5.5-.4.8 0 0 0 .1.1.1.2.3.5.6.8.4.4-.2.4-.6.3-1-.2-.2-.4-.4-.8-.3zm-18.3-31.6c0-.4-.3-.7-.7-.7h-.1c-.4.1-.7.3-.7.7.1.5.5.6.9.7.3-.1.6-.3.6-.7zm21.6-48.5c-.3-.1-.6.1-.6.4v.1c0 .3.1.6.4.6.4 0 .5-.2.7-.5-.1-.2-.2-.6-.5-.6zm7.4-2c-.5.3-.6.9-.3 1.4 0 0 .1.1.1.1.4.5.9.7 1.4.3s.4-1.1.2-1.7c-.4-.2-.9-.5-1.4-.1zm-3.5 11c0-.5-.5-.9-1-.9-.1 0-.1 0-.2 0-.6.1-1 .4-.9 1 .1.7.7.8 1.2 1 .4-.3.9-.6.9-1.1zm45.2 2.3c-.3.4-.3.9.1 1.3 0 0 .1.1.1.1.4.3.9.4 1.3 0 .4-.5.1-1-.2-1.5-.4-.1-.9-.3-1.3.1zm25.1 11.4c.5-.2.7-.8.5-1.3 0-.1-.1-.1-.1-.2-.3-.5-.7-.8-1.3-.5s-.5 1-.5 1.6c.4.3.8.7 1.4.4zm-13.1 41.9c.4-.3.5-.8.3-1.2 0 0-.1-.1-.1-.1-.3-.4-.8-.6-1.2-.3-.5.4-.3.9-.2 1.5.4.1.8.4 1.2.1zm-21.3-5.1c-.2.5 0 1.1.4 1.3.1 0 .1 0 .2.1.5.2 1.1.2 1.3-.4s-.2-1.1-.6-1.5c-.5 0-1-.1-1.3.5zm-25.9-14.3c.3 0 .6-.3.6-.6v-.1c0-.4-.2-.6-.6-.6s-.5.4-.6.8c.1.2.3.5.6.5zm4.3 36.8c-.3-.1-.7 0-.8.3v.1c-.1.3-.1.7.3.8s.7-.2.9-.5c-.1-.2-.1-.6-.4-.7zm-11.5-2.4c.1-.5-.2-1-.7-1.1-.1 0-.1 0-.2 0-.5-.1-1 .1-1.1.7s.4.9.9 1.2c.4-.2 1-.3 1.1-.8zm-42.6 4.1c.4-.3.5-.8.2-1.1 0 0-.1-.1-.1-.1-.3-.4-.7-.6-1.1-.2-.4.3-.3.9-.2 1.3.4.1.8.4 1.2.1zm14.3-9.2c0-.5-.4-1-.9-1-.1 0-.1 0-.2 0-.6 0-1 .3-1 .9 0 .7.6.9 1.1 1.1.4-.2 1-.4 1-1zm-4.5-9.6c-.4.2-.5.7-.3 1.1 0 0 0 .1.1.1.3.4.6.6 1.1.3s.4-.8.3-1.3c-.4-.2-.8-.5-1.2-.2zm-17.7-6.4c.1.3.5.4.8.3 0 0 .1 0 .1-.1.3-.2.5-.5.3-.8-.2-.4-.6-.3-1-.3-.1.3-.4.5-.2.9zm24.2 6.4c.3-.5.1-1.1-.5-1.4-.1 0-.1-.1-.2-.1-.6-.2-1.2-.2-1.4.4-.3.7.2 1.2.7 1.6.6 0 1.2 0 1.4-.5zm-22.7-27.8c.1.4.5.6.9.5h.1c.4-.2.7-.4.5-.9s-.6-.5-1.1-.5c-.2.2-.6.4-.4.9zm-2.7-30.5c0 .5.4.9.9.9h.2c.5 0 .9-.3.9-.9s-.6-.8-1.1-.9c-.4.1-.9.3-.9.9zm10-13.8c-.1.5.2 1 .7 1.2h.2c.6.1 1.1-.1 1.2-.7.1-.7-.4-1-.9-1.3-.6.1-1.1.2-1.2.8zm2.8-27.1c.2-.6-.1-1.1-.7-1.3-.1 0-.1 0-.2 0-.6-.1-1.2 0-1.3.7-.2.7.4 1.1.9 1.5.5-.3 1.2-.3 1.3-.9zm2.6 8.5c0-.3-.2-.5-.5-.5h-.1c-.3 0-.6.2-.5.5 0 .4.4.5.7.6.2-.2.5-.3.4-.6zm17.4 27.5c.2.3.6.3.8.1 0 0 .1 0 .1-.1.3-.2.4-.5.1-.8s-.6-.2-1-.1c0 .3-.2.6 0 .9zm-4.5-4c-.3-.1-.6.1-.7.4v.1c0 .3.1.6.4.7.4.1.6-.3.7-.5 0-.3-.1-.6-.4-.7zm38.4-1.5c.1-.3 0-.6-.3-.8h-.1c-.3-.1-.7-.1-.8.3s.1.7.4.9c.3-.1.6 0 .8-.4zm-43.1-20.2c.4-.4.4-1-.1-1.4 0 0-.1-.1-.1-.1-.5-.4-1-.5-1.4 0s-.1 1.1.2 1.6c.5.2 1.1.4 1.4-.1zm16.1 10.6c.3.1.6 0 .7-.2v-.1c.1-.3.1-.6-.2-.7s-.6.1-.8.3c.1.3-0 .6.3.7zm12.7-3c.5.1 1-.1 1.1-.6 0 0 0-.1 0-.2.1-.5 0-1-.6-1.1s-.9.3-1.3.8c.2.4.2.9.8 1.1zm13.2 23.8c.4 0 .7-.4.7-.8v-.1c-.1-.4-.3-.8-.7-.7-.5.1-.6.5-.7 1 .1.2.2.6.7.6zm13.8-12.9c-.4-.4-1.1-.4-1.5 0 0 0-.1.1-.1.1-.4.5-.5 1 0 1.5.6.5 1.2.2 1.7-.2.2-.4.4-.9-.1-1.4zm4.9 89.7c.2.3.7.4 1 .2 0 0 .1 0 .1-.1.3-.3.5-.6.2-1s-.8-.3-1.2-.1c-.2.3-.4.7-.1 1zm-20.9-26c-.2.3-.2.7 0 .9 0 0 .1 0 .1.1.3.2.7.3.9 0 .3-.3.1-.7-.1-1.1-.3 0-.7-.2-.9.1zm-16.5-3.3c.2-.5-.1-1.1-.6-1.2-.1 0-.1 0-.2 0-.6-.1-1.1 0-1.2.6-.2.6.3 1 .8 1.4.5-.2 1-.2 1.2-.8zm3.1-13.6c-.2-.2-.6-.2-.8 0 0 0 0 0-.1.1-.2.3-.3.6 0 .8s.6.1.9-.1c.1-.3.2-.6 0-.8zm-20.5 22.8c-.4-.1-.9.1-1 .6v.1c-.1.5 0 .9.5 1 .6.1.9-.3 1.1-.8-.1-.3-.1-.8-.6-.9zm15.4 3.4c0 .4.3.7.6.7h.1c.4 0 .7-.2.7-.6 0-.5-.4-.6-.8-.7-.3.1-.6.2-.6.6zm-32.4 8.6c-.1.3 0 .6.2.7h.1c.3.1.6.1.7-.2s-.1-.6-.3-.8c-.2.1-.6.1-.7.3zm-7-58.6c-.4 0-.7.4-.7.8v.1c.1.5.3.8.8.7s.6-.6.8-1c-.2-.2-.4-.7-.9-.6zm-10.4 16c.2.4.6.7 1.1.5 0 0 .1 0 .1-.1.5-.2.8-.6.5-1.1-.2-.5-.8-.5-1.3-.5-.2.4-.6.7-.4 1.2zm51.1-66.5c-.2-.2-.5-.3-.7-.2 0 0-.1 0-.1.1-.2.1-.4.4-.2.7s.6.2.9.1c.1-.2.3-.5.1-.7zm-6.8-.3c.2-.2.2-.5 0-.8 0 0 0 0-.1-.1-.2-.2-.5-.3-.8 0-.2.3-.1.6 0 .9.4.1.7.2.9 0zm62.8 9.2c-.1.3 0 .6.3.7h.1c.3.1.6.1.7-.3s-.1-.6-.4-.8c-.3.1-.6.1-.7.4zm-27.3 45c-.1.5.3 1 .8 1.1h.2c.6 0 1.1-.2 1.1-.8 0-.7-.5-.9-1.1-1.2-.4.2-.9.4-1 .9zm41.4 14.6c-.5-.2-1 .1-1.2.6v.2c-.1.5 0 1 .6 1.2s1-.3 1.3-.8c-.1-.5-.1-1.1-.7-1.2zm-2.8 22.4c-.2-.3-.7-.4-1-.1 0 0-.1 0-.1.1-.3.3-.5.6-.2.9.3.4.7.2 1.1.1.3-.3.5-.7.2-1zm-3.1-5.9c.4-.1.8-.5.7-.9v-.1c-.1-.5-.4-.8-.9-.7s-.7.6-.7 1.1c.2.3.4.7.9.6zm-26.6-25.7c.1-.3 0-.6-.3-.8h-.1c-.3-.1-.6-.1-.8.3-.1.4.1.6.4.9.3-.1.7-.1.8-.4zm-2.2 52.4c.5-.3.6-.9.4-1.4 0 0-.1-.1-.1-.1-.4-.5-.8-.8-1.4-.4s-.4 1-.3 1.6c.4.2.9.6 1.4.3zm-74.2-20.4c.1-.4-.1-.7-.4-.8h-.1c-.4-.1-.8 0-.9.4s.2.7.6 1c.3-.2.7-.2.8-.6zm14.8 1.7c-.3.3-.2.8.1 1.1 0 0 .1.1.1.1.4.3.8.3 1.1-.1s.1-.9-.2-1.3c-.3-.1-.8-.2-1.1.2zm8.4.9c-.1.4.2.8.6.8h.1c.4 0 .8-.1.9-.6 0-.5-.4-.7-.8-.9-.3.2-.7.3-.8.7zm15.3 2c-.3.1-.5.5-.3.8 0 0 0 .1.1.1.2.3.5.5.8.3.4-.2.4-.6.3-1-.3-.1-.5-.4-.9-.2zm11.4 2c.1-.3 0-.6-.3-.7h-.1c-.3-.1-.6 0-.7.3-.1.4.2.6.5.8.2-.1.5-.1.6-.4zm60.7 23.7c.3.5.9.7 1.4.5.1 0 .1-.1.2-.1.5-.3.9-.8.5-1.4s-1.1-.5-1.7-.4c-.3.4-.8.9-.4 1.4zm1-9.4c.3-.4.2-1-.2-1.3 0 0-.1-.1-.1-.1-.5-.3-1-.4-1.3.1s0 1 .3 1.5c.5.1 1 .3 1.3-.2zm-4-2.7c0-.4-.4-.6-.7-.6h-.1c-.4.1-.7.3-.6.7s.5.5.9.6c.2-.1.6-.3.5-.7zm-3 5.5c.2-.4 0-.9-.4-1h-.1c-.4-.1-.9-.1-1 .4-.2.5.2.9.6 1.2.3-.2.8-.2.9-.6z"
        fill="#fff" />
</svg>